<svg width="32" height="30" viewBox="0 0 32 30" fill="none" xmlns="http://www.w3.org/2000/svg">
<mask id="mask0_12_170" style="mask-type:alpha" maskUnits="userSpaceOnUse" x="2" y="0" width="30" height="29">
<path d="M31.5 14.5C31.5 22.2161 25.0242 28.5 17 28.5C8.97576 28.5 2.5 22.2161 2.5 14.5C2.5 6.78386 8.97576 0.5 17 0.5C25.0242 0.5 31.5 6.78386 31.5 14.5Z" fill="#D9D9D9" stroke="black"/>
</mask>
<g mask="url(#mask0_12_170)">
<path d="M16.3684 0C7.86604 0 0.973686 6.66261 0.973686 14.8816C0.973686 23.1005 7.86604 29.7632 16.3684 29.7632C24.8708 29.7632 31.7632 23.1005 31.7632 14.8816C31.7632 6.66261 24.8708 0 16.3684 0ZM22.6306 12.1905C22.637 12.3176 22.6386 12.4447 22.6386 12.5687C22.6386 16.4441 19.5901 20.9102 14.0127 20.9102C12.3647 20.9128 10.7509 20.4553 9.36542 19.5925C9.60115 19.6204 9.8433 19.6313 10.0887 19.6313C11.5095 19.6313 12.8164 19.1647 13.8539 18.3772C13.2217 18.3652 12.609 18.1628 12.1014 17.7982C11.5937 17.4337 11.2164 16.9251 11.022 16.3434C11.476 16.4268 11.9438 16.4094 12.3898 16.2922C11.7036 16.1581 11.0864 15.7986 10.643 15.2748C10.1997 14.751 9.95733 14.095 9.95716 13.4182V13.3826C10.3661 13.6011 10.8343 13.7345 11.3315 13.75C10.6881 13.336 10.2326 12.7 10.0583 11.9721C9.88388 11.2443 10.0037 10.4795 10.3933 9.83424C11.155 10.7395 12.1048 11.4801 13.1813 12.0081C14.2579 12.536 15.4371 12.8395 16.6426 12.8989C16.4894 12.27 16.5553 11.6098 16.8303 11.0209C17.1052 10.432 17.5737 9.94739 18.163 9.64243C18.7522 9.33747 19.4292 9.22925 20.0886 9.33458C20.7481 9.43991 21.3531 9.7529 21.8095 10.2249C22.4881 10.0951 23.1389 9.85448 23.7338 9.51336C23.5077 10.1925 23.0341 10.7693 22.4012 11.1364C23.0023 11.0664 23.5893 10.9102 24.1428 10.6729C23.7362 11.2618 23.2241 11.7757 22.6306 12.1905Z" fill="#3C4867"/>
</g>
</svg>
